<?xml version="1.0" encoding="utf-8"?>
<!-- Generator: Adobe Illustrator 16.0.0, SVG Export Plug-In . SVG Version: 6.00 Build 0)  -->
<!DOCTYPE svg PUBLIC "-//W3C//DTD SVG 1.1//EN" "http://www.w3.org/Graphics/SVG/1.1/DTD/svg11.dtd">
<svg version="1.1" id="Calque_1" xmlns="http://www.w3.org/2000/svg" xmlns:xlink="http://www.w3.org/1999/xlink" x="0px" y="0px"
	 width="960px" height="560px" viewBox="0 0 960 560" enable-background="new 0 0 960 560" xml:space="preserve">
<path fill="#5CBC50" d="M497.799,182.855c-5.631,0-10.174-4.65-10.174-10.281c0-15.886-6.178-30.926-17.445-42.161
	c-11.267-11.209-26.307-17.472-42.166-17.472l0,0c-5.577,0-10.062-4.511-10.062-10.174c0-5.578,4.484-10.116,10.062-10.116l0,0
	c21.33,0,41.454,8.342,56.605,23.381c15.034,15.12,23.408,35.217,23.408,56.546C508.027,178.21,503.431,182.855,497.799,182.855z
	 M681.6,389.263l-35.983,36.203L545.596,325.333l10.802-10.828l-30.571-30.571c-18.633,16.298-40.182,27.292-62.998,32.758
	c-48.877,11.647-102.399-1.094-140.627-39.214c-58.406-58.334-58.406-153.162,0-211.514c11.509-11.5,24.689-20.057,38.447-27.001
	c38.349-19.403,82.987-21.835,122.551-6.137c18.431,7.275,35.71,18.238,50.529,33.138c56,55.915,57.752,144.892,6.482,203.585
	l30.567,30.625l10.743-10.775L681.6,389.263z M512.126,87.593C489.65,65.117,459.898,52.81,427.96,52.81
	c-31.771,0-61.519,12.307-84,34.783c-22.476,22.449-34.944,52.389-34.944,84.215c0,31.665,12.522,61.663,34.944,84.121
	c22.476,22.423,52.282,34.729,84.053,34.729c31.885,0,61.637-12.307,84.107-34.729C558.61,209.436,558.61,134.051,512.126,87.593z"
	/>
</svg>
